Coordinates
version=1
nRows=22
nColumns=24
inDegrees=yes

Units are S.I. units (second, meters, Newtons, ...)
Angles are in degrees.

endheader
time	pelvis_tilt	pelvis_list	pelvis_rotation	pelvis_tx	pelvis_ty	pelvis_tz	hip_flexion_r	hip_adduction_r	hip_rotation_r	knee_angle_r	ankle_angle_r	subtalar_angle_r	mtp_angle_r	hip_flexion_l	hip_adduction_l	hip_rotation_l	knee_angle_l	ankle_angle_l	subtalar_angle_l	mtp_angle_l	lumbar_extension	lumbar_bending	lumbar_rotation
      1.00816667	     -3.78354603	      3.28232899	      0.37570969	     -0.10625586	      1.04893568	      0.29562665	     -8.83816193	     -1.81360222	     -2.84408302	    -13.01882683	     21.39518132	      0.94322644	     -0.70691262	     26.45575089	      2.29671254	     -1.59822196	     -7.37993565	      8.61421020	      7.94631183	      2.08339732	     -5.51180964	     -0.86283005	      1.11184211
      1.01233333	     -3.72560667	      3.34828139	      0.28950064	     -0.10014556	      1.04814803	      0.29525627	     -8.99634265	     -1.95940112	     -2.93744242	    -13.58047232	     21.56851720	      1.30231931	     -0.64705471	     26.46970136	      2.41331973	     -1.51816485	     -7.88262145	      8.43680151	      7.74027838	      2.12312795	     -5.54618410	     -0.98554502	      1.16185459
      1.01650000	     -3.67010630	      3.39086814	      0.22640278	     -0.09402259	      1.04742209	      0.29487244	     -9.17442937	     -2.06007814	     -2.90447443	    -14.08645976	     21.50921603	      1.31668526	     -0.62933142	     26.51520044	      2.50947219	     -1.46444668	     -8.50544557	      8.26015051	      7.61441059	      2.13203093	     -5.58175174	     -1.04928937	      1.16320509
      1.02066667	     -3.61176949	      3.45605270	      0.14072903	     -0.08789794	      1.04675019	      0.29448976	     -9.28986397	     -2.21207460	     -2.99398766	    -14.73230685	     21.59576510	      1.67330057	     -0.51126600	     26.53227363	      2.62764653	     -1.34237580	     -9.12991050	      8.03009743	      7.34300882	      2.18804739	     -5.61429268	     -1.17243589	      1.20885259
      1.02483333	     -3.55932392	      3.50248696	      0.07175479	     -0.08177518	      1.04611798	      0.29407802	     -9.39396773	     -2.33714019	     -3.03582812	    -15.38290632	     21.54910039	      1.87125144	     -0.35347881	     26.57192428	      2.73167907	     -1.21625450	     -9.83119567	      7.79657120	      7.09114413	      2.25533592	     -5.64295881	     -1.25758614	      1.22693270
      1.02900000	     -3.51513790	      3.55573500	      0.02007452	     -0.07560901	      1.04553859	      0.29363616	     -9.47621692	     -2.47024220	     -3.10356788	    -16.06326705	     21.46117844	      2.06013351	     -0.02049888	     26.61894509	      2.84895924	     -1.07837135	    -10.57068402	      7.52168116	      6.82084008	      2.37687508	     -5.64400140	     -1.36479932	      1.24701555
      1.03316667	     -3.45332148	      3.57817889	     -0.07375947	     -0.06951411	      1.04505472	      0.29324582	     -9.53384915	     -2.57623107	     -3.07053868	    -16.80830079	     21.30600698	      2.22515860	      0.19813612	     26.65406984	      2.91471401	     -0.97918781	    -11.35904311	      7.30966195	      6.59740580	      2.44142984	     -5.69937315	     -1.41249443	      1.25867070
      1.03733333	     -3.37364944	      3.61611404	     -0.13171560	     -0.06337414	      1.04466833	      0.29283416	     -9.61423193	     -2.68591907	     -3.03779019	    -17.55308844	     21.05844237	      2.21527176	      0.23945973	     26.67468398	      3.00292655	     -0.90637215	    -12.18332637	      7.07583403	      6.46265797	      2.44924063	     -5.77530885	     -1.50951974	      1.25001827
      1.04150000	     -3.33648013	      3.65340426	     -0.19315608	     -0.05722911	      1.04427228	      0.29234226	     -9.58579700	     -2.82626102	     -3.13564855	    -18.41610273	     20.76012834	      2.42600062	      4.32606684	     26.70154126	      3.10962243	     -0.67626518	    -12.94396244	      6.74114535	      6.00557821	      3.28624780	     -5.76004720	     -1.58813200	      1.24783530
      1.04566667	     -3.26617933	      3.67463395	     -0.26151989	     -0.05110113	      1.04399644	      0.29187814	     -9.57103142	     -2.94657704	     -3.18908058	    -19.31866333	     20.46549512	      2.65065269	      4.37921889	     26.72322269	      3.17911186	     -0.59762257	    -13.79555133	      6.56306049	      5.84888126	      3.28547885	     -5.81997326	     -1.65467089	      1.28424820
      1.04983333	     -3.21271008	      3.69597181	     -0.32463900	     -0.04496601	      1.04376658	      0.29139115	     -9.50462592	     -3.07228537	     -3.25005530	    -20.28346703	     20.12090920	      2.85322940	      4.48738367	     26.74222252	      3.25433293	     -0.47462118	    -14.61614544	      6.34579577	      5.61334733	      3.28090460	     -5.85051094	     -1.72591017	      1.29833239
      1.05400000	     -3.17206243	      3.71096469	     -0.38420373	     -0.03883687	      1.04357747	      0.29087712	     -9.38555375	     -3.19927922	     -3.33260706	    -21.31742053	     19.73388823	      3.05265310	      4.67539234	     26.76248797	      3.32740580	     -0.32583706	    -15.42506080	      6.14715482	      5.36128116	      3.27176024	     -5.86919255	     -1.78450603	      1.30768311
      1.05816667	     -3.10076632	      3.72815078	     -0.44158969	     -0.03271467	      1.04353294	      0.29035676	     -9.27638788	     -3.33019572	     -3.39729137	    -22.37879910	     19.19524987	      3.14495502	      8.22097266	     26.72741622	      3.40595203	     -0.17355714	    -16.19396526	      5.94667578	      5.06669197	      3.10300813	     -5.92489949	     -1.84346185	      1.29061021
      1.06233333	     -3.05252890	      3.73111717	     -0.49425712	     -0.02657128	      1.04350850	      0.28982574	     -9.10853466	     -3.45270629	     -3.48218044	    -23.50443555	     18.64954643	      3.34037487	      8.26885178	     26.71541778	      3.46267408	     -0.07212341	    -16.97412423	      5.83635331	      4.92258007	      3.09638683	     -5.95096628	     -1.89447257	      1.30681980
      1.06650000	     -2.99984433	      3.75272338	     -0.54921965	     -0.02044500	      1.04356212	      0.28927265	     -8.89580188	     -3.61129441	     -3.61228320	    -24.72146555	     18.11908841	      3.56557672	      8.43093104	     26.66878234	      3.54403267	      0.05453772	    -17.69770944	      5.70903796	      4.69764433	      3.07588284	     -5.97943356	     -1.95505611	      1.32038772
      1.07066667	     -2.97091003	      3.76126479	     -0.59960834	     -0.01432576	      1.04364749	      0.28872296	     -8.62863582	     -3.75547647	     -3.71434369	    -25.97791849	     17.49832540	      3.76334994	      8.80846648	     26.63311438	      3.61360207	      0.18804536	    -18.39911712	      5.61051223	      4.45265886	      3.02969359	     -5.99035318	     -2.02888100	      1.31810202
      1.07483333	     -2.86675792	      3.76283148	     -0.65870170	     -0.00822122	      1.04394943	      0.28819923	     -8.42034588	     -3.89342187	     -3.79908573	    -27.25149048	     16.73389176	      3.83874772	      8.88082741	     26.49019810	      3.66497900	      0.25338334	    -19.04977556	      5.58686797	      4.35190795	      3.02041636	     -6.08591889	     -2.06355168	      1.30344315
      1.07900000	     -2.83947201	      3.77322568	     -0.70215616	     -0.00212236	      1.04418163	      0.28760541	     -8.08054393	     -4.06023709	     -3.93629870	    -28.60479802	     15.89862437	      3.99196704	     13.42045795	     26.39594339	      3.74668390	      0.42138968	    -19.63505266	      5.55443976	      4.13224524	      2.43515963	     -6.09228128	     -2.10359089	      1.29062362
      1.08316667	     -2.81073771	      3.78671825	     -0.74780415	      0.00397885	      1.04447518	      0.28704958	     -7.70920289	     -4.23038567	     -4.06208653	    -30.01631836	     15.09854147	      4.13443836	     13.46895495	     26.28343691	      3.81878524	      0.51354065	    -20.19085737	      5.57612540	      4.01060500	      2.42466376	     -6.09253276	     -2.17083504	      1.29014423
      1.08733333	     -2.77227997	      3.80025615	     -0.78999290	      0.01003761	      1.04484531	      0.28648625	     -7.31426098	     -4.40623667	     -4.18782448	    -31.47213711	     14.25138004	      4.26592143	     13.58902354	     26.13376647	      3.89688011	      0.62690364	    -20.69167191	      5.61307717	      3.84848151	      2.40126237	     -6.11242787	     -2.23173254	      1.27750362
      1.09150000	     -2.66282321	      3.83347080	     -0.82882289	      0.01604720	      1.04543023	      0.28591591	     -6.97200138	     -4.61070798	     -4.32512161	    -32.94278307	     13.30861605	      4.37781689	     15.12772459	     25.85711977	      4.01313381	      0.81760154	    -21.08624242	      5.63257981	      3.54655844	      2.09698631	     -6.24098397	     -2.31704662	      1.25946639
      1.09566667	     -2.67577823	      3.84639508	     -0.87920393	      0.02208644	      1.04582036	      0.28541574	     -6.45236120	     -4.78881407	     -4.41219703	    -34.48577848	     12.38473554	      4.41047011	     15.21716455	     25.72672121	      4.07002636	      0.83563739	    -21.52298841	      5.77879353	      3.54217892	      2.07848920	     -6.18348166	     -2.38144907	      1.22029995
